grf
version=1
nRows=13
nColumns=73
inDegrees=yes
endheader
time	ground_force_1_vx	ground_force_1_vy	ground_force_1_vz	ground_force_1_px	ground_force_1_py	ground_force_1_pz	ground_moment_1_mx	ground_moment_1_my	ground_moment_1_mz	ground_force_2_vx	ground_force_2_vy	ground_force_2_vz	ground_force_2_px	ground_force_2_py	ground_force_2_pz	ground_moment_2_mx	ground_moment_2_my	ground_moment_2_mz	ground_force_3_vx	ground_force_3_vy	ground_force_3_vz	ground_force_3_px	ground_force_3_py	ground_force_3_pz	ground_moment_3_mx	ground_moment_3_my	ground_moment_3_mz	ground_force_4_vx	ground_force_4_vy	ground_force_4_vz	ground_force_4_px	ground_force_4_py	ground_force_4_pz	ground_moment_4_mx	ground_moment_4_my	ground_moment_4_mz	ground_force_5_vx	ground_force_5_vy	ground_force_5_vz	ground_force_5_px	ground_force_5_py	ground_force_5_pz	ground_moment_5_mx	ground_moment_5_my	ground_moment_5_mz	ground_force_6_vx	ground_force_6_vy	ground_force_6_vz	ground_force_6_px	ground_force_6_py	ground_force_6_pz	ground_moment_6_mx	ground_moment_6_my	ground_moment_6_mz	ground_force_7_vx	ground_force_7_vy	ground_force_7_vz	ground_force_7_px	ground_force_7_py	ground_force_7_pz	ground_moment_7_mx	ground_moment_7_my	ground_moment_7_mz	ground_force_8_vx	ground_force_8_vy	ground_force_8_vz	ground_force_8_px	ground_force_8_py	ground_force_8_pz	ground_moment_8_mx	ground_moment_8_my	ground_moment_8_mz
2.930000	0.000000	0.000000	0.000000	0.000000	0.000000	0.000000	0.000000	0.000000	0.000000	-7.751289	410.060980	-10.257259	0.451138	0.000000	0.417445	-0.000000	1.657663	-0.000000	-8.451621	368.986116	-9.187479	0.467058	0.000000	0.422102	-0.000000	1.636851	0.000000	0.747300	40.032050	-0.986203	0.339950	0.000000	0.402882	-0.000000	0.066406	-0.000000	-9.041525	369.657223	-9.441851	0.466065	0.000000	0.418372	-0.000000	1.660252	-0.000000	0.113249	38.070360	-1.054782	0.335462	0.000000	0.403792	-0.000000	0.058427	0.000000	0.000000	0.000000	0.000000	0.000000	0.000000	0.000000	0.000000	0.000000	0.000000	-8.311882	405.278041	-11.105177	0.453195	0.000000	0.417299	-0.000000	1.724651	-0.000000
2.931000	0.000000	0.000000	0.000000	0.000000	0.000000	0.000000	0.000000	0.000000	0.000000	-7.532529	410.093643	-10.223427	0.450513	0.000000	0.417453	-0.000000	1.657238	-0.000000	-8.376350	367.921987	-9.126609	0.466668	0.000000	0.422145	-0.000000	1.633597	0.000000	0.830275	41.102045	-1.012358	0.341121	0.000000	0.403508	-0.000000	0.069378	-0.000000	-8.890629	368.323654	-9.372696	0.465689	0.000000	0.418408	-0.000000	1.657324	-0.000000	0.248640	39.365234	-1.100172	0.337907	0.000000	0.403790	-0.000000	0.066455	0.000000	0.000000	0.000000	0.000000	0.000000	0.000000	0.000000	0.000000	0.000000	0.000000	-8.050826	405.220727	-11.073105	0.452490	0.000000	0.417289	-0.000000	1.725054	-0.000000
2.932000	0.000000	0.000000	0.000000	0.000000	0.000000	0.000000	0.000000	0.000000	0.000000	-7.327450	410.159670	-10.190751	0.449897	0.000000	0.417460	-0.000000	1.657775	-0.000000	-8.329467	366.969022	-9.074096	0.466258	0.000000	0.422183	-0.000000	1.632314	0.000000	0.937993	42.114046	-1.032673	0.342162	0.000000	0.404037	-0.000000	0.071293	-0.000000	-8.766941	367.093871	-9.306309	0.465296	0.000000	0.418442	-0.000000	1.654090	-0.000000	0.400039	40.592361	-1.137965	0.340047	0.000000	0.403791	-0.000000	0.073595	0.000000	0.000000	0.000000	0.000000	0.000000	0.000000	0.000000	0.000000	0.000000	0.000000	-7.800093	405.193790	-11.038036	0.451797	0.000000	0.417281	-0.000000	1.724143	-0.000000
2.933000	0.000000	0.000000	0.000000	0.000000	0.000000	0.000000	0.000000	0.000000	0.000000	-7.135347	410.259560	-10.160452	0.449290	0.000000	0.417466	-0.000000	1.659085	-0.000000	-8.307941	366.129078	-9.031029	0.465828	0.000000	0.422215	-0.000000	1.632887	0.000000	1.067225	43.063579	-1.047053	0.343080	0.000000	0.404478	-0.000000	0.072038	-0.000000	-8.672802	365.974147	-9.244433	0.464888	0.000000	0.418475	-0.000000	1.651754	-0.000000	0.567473	41.748199	-1.167674	0.341907	0.000000	0.403795	-0.000000	0.079436	0.000000	0.000000	0.000000	0.000000	0.000000	0.000000	0.000000	0.000000	0.000000	0.000000	-7.561784	405.201234	-11.001023	0.451119	0.000000	0.417273	-0.000000	1.722828	-0.000000
2.934000	0.000000	0.000000	0.000000	0.000000	0.000000	0.000000	0.000000	0.000000	0.000000	-6.954840	410.393152	-10.132776	0.448690	0.000000	0.417471	-0.000000	1.660801	-0.000000	-8.306905	365.403339	-8.997485	0.465375	0.000000	0.422242	-0.000000	1.634730	0.000000	1.213596	43.946442	-1.055463	0.343877	0.000000	0.404839	-0.000000	0.071764	-0.000000	-8.608609	364.968789	-9.188846	0.464466	0.000000	0.418505	-0.000000	1.651127	-0.000000	0.749972	42.830069	-1.189179	0.343509	0.000000	0.403808	-0.000000	0.083648	0.000000	0.000000	0.000000	0.000000	0.000000	0.000000	0.000000	0.000000	0.000000	0.000000	-7.337109	405.245817	-10.963527	0.450456	0.000000	0.417266	-0.000000	1.721682	-0.000000
2.935000	0.000000	0.000000	0.000000	0.000000	0.000000	0.000000	0.000000	0.000000	0.000000	-6.784576	410.559841	-10.107525	0.448096	0.000000	0.417472	-0.000000	1.662685	-0.000000	-8.320953	364.792170	-8.973005	0.464901	0.000000	0.422263	-0.000000	1.637254	0.000000	1.372186	44.759077	-1.057981	0.344551	0.000000	0.405122	-0.000000	0.070741	-0.000000	-8.572342	364.080502	-9.140995	0.464031	0.000000	0.418534	-0.000000	1.652332	-0.000000	0.945172	43.835735	-1.202751	0.344869	0.000000	0.403830	-0.000000	0.086085	0.000000	0.000000	0.000000	0.000000	0.000000	0.000000	0.000000	0.000000	0.000000	0.000000	-7.126297	405.329001	-10.927083	0.449810	0.000000	0.417261	-0.000000	1.720762	-0.000000
2.936000	0.000000	0.000000	0.000000	0.000000	0.000000	0.000000	0.000000	0.000000	0.000000	-6.623865	410.758692	-10.084839	0.447502	0.000000	0.417471	-0.000000	1.664722	-0.000000	-8.345462	364.295039	-8.957182	0.464403	0.000000	0.422278	-0.000000	1.640229	0.000000	1.538246	45.498745	-1.054978	0.345092	0.000000	0.405332	-0.000000	0.069138	-0.000000	-8.559729	363.311246	-9.101417	0.463584	0.000000	0.418561	-0.000000	1.654869	-0.000000	1.149468	44.763071	-1.208742	0.346000	0.000000	0.403856	-0.000000	0.086874	0.000000	0.000000	0.000000	0.000000	0.000000	0.000000	0.000000	0.000000	0.000000	0.000000	-6.928600	405.451485	-10.892408	0.449180	0.000000	0.417257	-0.000000	1.719799	-0.000000
2.937000	0.000000	0.000000	0.000000	0.000000	0.000000	0.000000	0.000000	0.000000	0.000000	-6.472568	410.988498	-10.064881	0.446903	0.000000	0.417468	-0.000000	1.667122	-0.000000	-8.377180	363.910890	-8.949504	0.463877	0.000000	0.422288	-0.000000	1.643816	0.000000	1.707872	46.163215	-1.046982	0.345488	0.000000	0.405476	-0.000000	0.066992	-0.000000	-8.565302	362.662090	-9.069896	0.463124	0.000000	0.418585	-0.000000	1.658040	-0.000000	1.358645	45.610105	-1.207555	0.346913	0.000000	0.403881	-0.000000	0.086312	0.000000	0.000000	0.000000	0.000000	0.000000	0.000000	0.000000	0.000000	0.000000	0.000000	-6.742724	405.613110	-10.859529	0.448564	0.000000	0.417253	-0.000000	1.718507	-0.000000
2.938000	0.000000	0.000000	0.000000	0.000000	0.000000	0.000000	0.000000	0.000000	0.000000	-6.330488	411.247733	-10.046952	0.446295	0.000000	0.417462	-0.000000	1.670287	-0.000000	-8.413984	363.638317	-8.948759	0.463322	0.000000	0.422295	-0.000000	1.648345	0.000000	1.878390	46.750525	-1.034381	0.345728	0.000000	0.405557	-0.000000	0.064376	-0.000000	-8.583896	362.132650	-9.046212	0.462651	0.000000	0.418605	-0.000000	1.661430	-0.000000	1.568599	46.375163	-1.199846	0.347612	0.000000	0.403901	-0.000000	0.084624	0.000000	0.000000	0.000000	0.000000	0.000000	0.000000	0.000000	0.000000	0.000000	0.000000	-6.567594	405.812449	-10.828735	0.447959	0.000000	0.417248	-0.000000	1.716782	-0.000000
2.939000	0.000000	0.000000	0.000000	0.000000	0.000000	0.000000	0.000000	0.000000	0.000000	-6.196916	411.534701	-10.029474	0.445671	0.000000	0.417458	-0.000000	1.674669	-0.000000	-8.454198	363.475397	-8.952998	0.462734	0.000000	0.422301	-0.000000	1.654080	0.000000	2.048136	47.259291	-1.017438	0.345800	0.000000	0.405585	-0.000000	0.061474	-0.000000	-8.611619	361.721401	-9.030297	0.462159	0.000000	0.418623	-0.000000	1.665063	-0.000000	1.775998	47.056759	-1.186447	0.348102	0.000000	0.403913	-0.000000	0.081891	0.000000	0.000000	0.000000	0.000000	0.000000	0.000000	0.000000	0.000000	0.000000	0.000000	-6.402655	406.047022	-10.800658	0.447362	0.000000	0.417242	-0.000000	1.714782	-0.000000
2.940000	0.000000	0.000000	0.000000	0.000000	0.000000	0.000000	0.000000	0.000000	0.000000	-6.070754	411.848143	-10.010688	0.445025	0.000000	0.417456	-0.000000	1.680536	-0.000000	-8.495962	363.419919	-8.960083	0.462110	0.000000	0.422308	-0.000000	1.661071	0.000000	2.215695	47.689053	-0.996434	0.345687	0.000000	0.405570	-0.000000	0.058498	-0.000000	-8.645922	361.426388	-9.021588	0.461646	0.000000	0.418638	0.000000	1.669244	-0.000000	1.978706	47.653521	-1.168039	0.348386	0.000000	0.403915	-0.000000	0.078215	0.000000	0.000000	0.000000	0.000000	0.000000	0.000000	0.000000	0.000000	0.000000	0.000000	-6.247527	406.313936	-10.775293	0.446767	0.000000	0.417236	-0.000000	1.712940	-0.000000
2.941000	0.000000	0.000000	0.000000	0.000000	0.000000	0.000000	0.000000	0.000000	0.000000	-5.950883	412.187775	-9.988923	0.444353	0.000000	0.417458	-0.000000	1.687855	-0.000000	-8.536904	363.470104	-8.968146	0.461447	0.000000	0.422317	-0.000000	1.669110	0.000000	2.379226	48.040103	-0.971482	0.345377	0.000000	0.405519	-0.000000	0.055599	-0.000000	-8.685008	361.245351	-9.018597	0.461108	0.000000	0.418653	0.000000	1.674277	-0.000000	2.175637	48.164561	-1.145077	0.348466	0.000000	0.403907	-0.000000	0.073837	0.000000	0.000000	0.000000	0.000000	0.000000	0.000000	0.000000	0.000000	0.000000	0.000000	-6.101543	406.610398	-10.751497	0.446169	0.000000	0.417230	-0.000000	1.711832	-0.000000
2.942000	0.000000	0.000000	0.000000	0.000000	0.000000	0.000000	0.000000	0.000000	0.000000	-5.836217	412.554154	-9.962598	0.443650	0.000000	0.417466	-0.000000	1.696417	-0.000000	-8.574053	363.624924	-8.975838	0.460744	0.000000	0.422329	-0.000000	1.677853	0.000000	2.536302	48.312999	-0.942282	0.344863	0.000000	0.405439	-0.000000	0.052849	-0.000000	-8.727070	361.175617	-9.019287	0.460539	0.000000	0.418668	0.000000	1.680276	-0.000000	2.366019	48.589946	-1.117969	0.348337	0.000000	0.403892	-0.000000	0.069056	0.000000	0.000000	0.000000	0.000000	0.000000	0.000000	0.000000	0.000000	0.000000	0.000000	-5.963727	406.934073	-10.727543	0.445561	0.000000	0.417226	-0.000000	1.711904	-0.000000
